<?xml version="1.0" encoding="utf-8"?>
<!-- Generator: Adobe Illustrator 16.0.0, SVG Export Plug-In . SVG Version: 6.00 Build 0)  -->
<!DOCTYPE svg PUBLIC "-//W3C//DTD SVG 1.1//EN" "http://www.w3.org/Graphics/SVG/1.1/DTD/svg11.dtd">
<svg version="1.1" id="Capa_1" xmlns="http://www.w3.org/2000/svg" xmlns:xlink="http://www.w3.org/1999/xlink" x="0px" y="0px"
	 width="94.504px" height="71.896px" viewBox="0 11.305 94.504 71.896" enable-background="new 0 11.305 94.504 71.896"
	 xml:space="preserve">
<g>
	<g>
		<path d="M93.918,45.833L69.799,21.714c-0.75-0.75-2.076-0.75-2.826,0l-5.229,5.229c-0.781,0.781-0.781,2.047,0,2.828
			l17.478,17.475L61.744,64.725c-0.781,0.78-0.781,2.047,0,2.827l5.229,5.229c0.375,0.375,0.885,0.587,1.414,0.587
			s1.039-0.212,1.414-0.587l24.117-24.118C94.699,47.881,94.699,46.614,93.918,45.833z"/>
		<path d="M32.759,64.725L15.285,47.248l17.477-17.475c0.375-0.375,0.586-0.883,0.586-1.414c0-0.53-0.21-1.039-0.586-1.414
			l-5.229-5.229c-0.375-0.375-0.884-0.586-1.414-0.586c-0.53,0-1.039,0.211-1.414,0.586L0.585,45.833
			c-0.781,0.781-0.781,2.047,0,2.829L24.704,72.78c0.375,0.375,0.884,0.587,1.414,0.587c0.53,0,1.039-0.212,1.414-0.587l5.229-5.229
			C33.542,66.771,33.542,65.505,32.759,64.725z"/>
		<path d="M60.967,13.6c-0.254-0.466-0.682-0.812-1.189-0.962l-4.239-1.251c-1.058-0.314-2.172,0.293-2.483,1.352l-19.68,66.643
			c-0.15,0.509-0.092,1.056,0.161,1.521c0.253,0.468,0.682,0.813,1.19,0.964l4.239,1.251c0.189,0.056,0.38,0.083,0.567,0.083
			c0.863,0,1.66-0.564,1.917-1.435l19.679-66.645C61.277,14.612,61.221,14.065,60.967,13.6z"/>
	</g>
</g>
</svg>
